<svg xmlns="http://www.w3.org/2000/svg" viewBox="0 0 130.07 31.94"><defs><style>.a{fill:#fff;}.a,.b,.c{stroke:#1d1d1b;stroke-miterlimit:10;}.b{fill:none;}.c{fill:#009fe3;}.d{fill:#1d1d1b;}</style></defs><title>info-pc-hub</title><rect class="a" x="0.5" y="0.7" width="29.65" height="29.65" rx="5.67"/><rect class="a" x="99.93" y="0.7" width="29.65" height="29.65" rx="5.67"/><line class="b" x1="29.45" y1="15.97" x2="100.16" y2="15.97"/><circle class="c" cx="64.8" cy="15.97" r="15.47"/><path class="d" d="M8.87,11.23a12.57,12.57,0,0,1,2-.15,3.29,3.29,0,0,1,2.27.67,2.17,2.17,0,0,1,.7,1.69,2.38,2.38,0,0,1-.62,1.73,3.37,3.37,0,0,1-2.47.88A3.61,3.61,0,0,1,9.91,16v3.24h-1Zm1,3.9a3.54,3.54,0,0,0,.86.08c1.26,0,2-.61,2-1.72s-.75-1.59-1.91-1.59a4.17,4.17,0,0,0-1,.09Z"/><path class="d" d="M20.9,19a5.2,5.2,0,0,1-2.13.38,3.78,3.78,0,0,1-4-4.09A4,4,0,0,1,19,11a4.37,4.37,0,0,1,1.92.36l-.25.85A3.85,3.85,0,0,0,19,11.88a3,3,0,0,0-3.16,3.33A2.94,2.94,0,0,0,19,18.46a4.22,4.22,0,0,0,1.7-.33Z"/><path class="d" d="M101.25,12.07a10.58,10.58,0,0,1,2-.17,3.29,3.29,0,0,1,2.34.66,2,2,0,0,1,.63,1.53,2.13,2.13,0,0,1-1.52,2.07v0a2,2,0,0,1,1.19,1.63,12.33,12.33,0,0,0,.62,2.22h-1.08a10.79,10.79,0,0,1-.54-1.93c-.24-1.11-.67-1.53-1.62-1.57h-1V20h-1Zm1,3.68h1.07c1.11,0,1.82-.61,1.82-1.54s-.76-1.5-1.86-1.51a4.15,4.15,0,0,0-1,.1Z"/><path class="d" d="M111.89,16.25h-3.14v2.92h3.5V20H107.7V12h4.37v.87h-3.32v2.56h3.14Z"/><path class="d" d="M113.61,12h1v7.21h3.45V20h-4.49Z"/><path class="d" d="M120.58,17.5,119.74,20h-1.08L121.4,12h1.26L125.42,20h-1.11l-.87-2.54Zm2.65-.82-.79-2.32c-.18-.53-.3-1-.42-1.48h0c-.12.48-.25,1-.41,1.47l-.79,2.33Z"/><path class="d" d="M127.66,12V20h-1V12Z"/></svg>