<svg xmlns="http://www.w3.org/2000/svg" viewBox="0 0 130.96 31.94"><defs><style>.a{fill:#fff;}.a,.b,.c{stroke:#1d1d1b;stroke-miterlimit:10;}.b{fill:none;}.c{fill:#009fe3;}.d{fill:#1d1d1b;}</style></defs><title>info-hub-auto</title><rect class="a" x="0.5" y="0.76" width="29.65" height="29.65" rx="5.67"/><rect class="a" x="100.82" y="0.76" width="29.65" height="29.65" rx="5.67"/><line class="b" x1="30.15" y1="15.97" x2="100.85" y2="15.97"/><circle class="c" cx="65.5" cy="15.97" r="15.47"/><path class="d" d="M2.12,12.07a10.66,10.66,0,0,1,2-.17,3.28,3.28,0,0,1,2.34.66,2,2,0,0,1,.64,1.53,2.14,2.14,0,0,1-1.53,2.07v0a2,2,0,0,1,1.19,1.63A13.27,13.27,0,0,0,7.38,20H6.3a10.79,10.79,0,0,1-.54-1.93c-.24-1.11-.67-1.53-1.61-1.57h-1V20h-1Zm1,3.68H4.23c1.11,0,1.82-.61,1.82-1.54s-.75-1.5-1.86-1.51a4.15,4.15,0,0,0-1,.1Z"/><path class="d" d="M12.76,16.25H9.62v2.92h3.5V20H8.57V12h4.37v.87H9.62v2.56h3.14Z"/><path class="d" d="M14.48,12h1v7.21H19V20h-4.5Z"/><path class="d" d="M21.45,17.5,20.61,20H19.53L22.28,12h1.26L26.29,20H25.18l-.86-2.54Zm2.65-.82-.79-2.32c-.18-.53-.3-1-.42-1.48h0c-.12.48-.25,1-.4,1.47l-.8,2.33Z"/><path class="d" d="M28.53,12V20h-1V12Z"/><path class="d" d="M103.59,17.22l-.84,2.54h-1.07l2.74-8.08h1.26l2.76,8.08h-1.12l-.86-2.54Zm2.65-.82-.79-2.32c-.18-.53-.3-1-.42-1.48h0c-.12.48-.25,1-.41,1.47l-.79,2.33Z"/><path class="d" d="M110.34,11.68v4.78c0,1.82.8,2.58,1.88,2.58s2-.79,2-2.58V11.68h1v4.71c0,2.49-1.3,3.5-3,3.5s-2.91-.94-2.91-3.45V11.68Z"/><path class="d" d="M118.59,12.57h-2.45v-.89h6v.89h-2.47v7.19h-1.06Z"/><path class="d" d="M129.61,15.64c0,2.78-1.69,4.25-3.76,4.25s-3.63-1.65-3.63-4.1,1.6-4.24,3.75-4.24S129.61,13.24,129.61,15.64Zm-6.28.13c0,1.73.94,3.27,2.58,3.27s2.59-1.52,2.59-3.35c0-1.61-.84-3.29-2.57-3.29S123.33,14,123.33,15.77Z"/></svg>