<svg xmlns="http://www.w3.org/2000/svg" viewBox="0 0 30.65 30.65"><defs><style>.a{fill:#009fe3;stroke:#1d1d1b;stroke-miterlimit:10;}.b{fill:#fff;}</style></defs><title>info-automaton</title><rect class="a" x="0.5" y="0.5" width="29.65" height="29.65" rx="5.67"/><path class="b" d="M3.31,16.53l-.84,2.55H1.39L4.14,11H5.4l2.76,8.09H7l-.86-2.55ZM6,15.72l-.79-2.33c-.18-.53-.3-1-.42-1.47h0c-.12.48-.25,1-.41,1.46l-.79,2.34Z"/><path class="b" d="M10.06,11v4.79c0,1.81.8,2.58,1.88,2.58s2-.79,2-2.58V11H15v4.72c0,2.48-1.31,3.5-3.06,3.5S9,18.26,9,15.75V11Z"/><path class="b" d="M18.31,11.88H15.85V11h6v.89H19.37v7.2H18.31Z"/><path class="b" d="M29.33,15c0,2.78-1.69,4.26-3.76,4.26s-3.63-1.66-3.63-4.1,1.59-4.25,3.75-4.25S29.33,12.55,29.33,15Zm-6.28.13c0,1.73.94,3.28,2.58,3.28s2.59-1.53,2.59-3.36c0-1.61-.84-3.29-2.58-3.29S23.05,13.31,23.05,15.08Z"/></svg>