<svg xmlns="http://www.w3.org/2000/svg" viewBox="0 0 30.65 30.65"><defs><style>.a{fill:#009640;stroke:#1d1d1b;stroke-miterlimit:10;}.b{fill:#f6f6f6;}</style></defs><title>success-video-server</title><rect class="a" x="0.5" y="0.5" width="29.65" height="29.65" rx="5.67"/><path class="b" d="M3.47,11.4a10.66,10.66,0,0,1,2-.17,3.28,3.28,0,0,1,2.34.66,2,2,0,0,1,.64,1.53,2.13,2.13,0,0,1-1.53,2.07v0a2,2,0,0,1,1.19,1.63,13,13,0,0,0,.63,2.22H7.66a9.25,9.25,0,0,1-.54-1.93c-.24-1.12-.67-1.54-1.62-1.57h-1v3.5h-1Zm1,3.68H5.58c1.12,0,1.82-.61,1.82-1.54S6.65,12,5.55,12a4.18,4.18,0,0,0-1,.1Z"/><path class="b" d="M11.57,12.18H9.11v-.89h6v.89H12.62v7.19h-1Z"/><path class="b" d="M15.78,18.1a3.68,3.68,0,0,0,1.87.53c1.07,0,1.7-.57,1.7-1.38s-.44-1.19-1.53-1.61c-1.32-.47-2.13-1.15-2.13-2.29a2.32,2.32,0,0,1,2.61-2.19,3.73,3.73,0,0,1,1.79.39l-.29.85A3.24,3.24,0,0,0,18.27,12c-1.11,0-1.53.66-1.53,1.21,0,.76.49,1.13,1.61,1.56,1.37.53,2.06,1.19,2.06,2.37s-.92,2.33-2.83,2.33A4.25,4.25,0,0,1,15.52,19Z"/><path class="b" d="M21.84,11.38a12.81,12.81,0,0,1,2-.15,3.31,3.31,0,0,1,2.26.67,2.15,2.15,0,0,1,.71,1.69,2.42,2.42,0,0,1-.62,1.73,3.39,3.39,0,0,1-2.47.88,3.56,3.56,0,0,1-.84-.07v3.24H21.84Zm1.05,3.9a3.38,3.38,0,0,0,.86.09c1.26,0,2-.62,2-1.73s-.76-1.58-1.91-1.58a4.26,4.26,0,0,0-1,.08Z"/></svg>