<svg xmlns="http://www.w3.org/2000/svg" viewBox="0 0 30.65 30.65"><defs><style>.a{fill:#009640;stroke:#1d1d1b;stroke-miterlimit:10;}.b{fill:#fff;}</style></defs><title>success-pc</title><rect class="a" x="0.5" y="0.5" width="29.65" height="29.65" rx="5.67"/><path class="b" d="M9.56,10.58a12.81,12.81,0,0,1,2-.15,3.31,3.31,0,0,1,2.26.67,2.15,2.15,0,0,1,.71,1.69,2.42,2.42,0,0,1-.62,1.73,3.35,3.35,0,0,1-2.47.89,3.52,3.52,0,0,1-.84-.08v3.24h-1Zm1,3.9a3.38,3.38,0,0,0,.86.09c1.26,0,2-.62,2-1.73s-.76-1.58-1.91-1.58a4.26,4.26,0,0,0-1,.08Z"/><path class="b" d="M21.6,18.31a5.29,5.29,0,0,1-2.14.38,3.77,3.77,0,0,1-4-4.09,4,4,0,0,1,4.22-4.24,4.26,4.26,0,0,1,1.92.36l-.25.85a3.85,3.85,0,0,0-1.64-.34,3,3,0,0,0-3.15,3.34,2.94,2.94,0,0,0,3.11,3.25,4.24,4.24,0,0,0,1.7-.34Z"/></svg>