<svg xmlns="http://www.w3.org/2000/svg" viewBox="0 0 30.65 30.65"><defs><style>.a{fill:#f39200;stroke:#1d1d1b;stroke-miterlimit:10;}.b{fill:#fff;}</style></defs><title>warn-hub</title><rect class="a" x="0.5" y="0.5" width="29.65" height="29.65" rx="5.67"/><path class="b" d="M2.12,11.42a10.66,10.66,0,0,1,2-.17,3.32,3.32,0,0,1,2.34.66,2,2,0,0,1,.64,1.54,2.14,2.14,0,0,1-1.53,2.06v0a2,2,0,0,1,1.19,1.63,13.92,13.92,0,0,0,.62,2.22H6.3a11,11,0,0,1-.54-1.94c-.24-1.11-.67-1.53-1.61-1.57h-1V19.4h-1Zm1,3.68H4.23c1.11,0,1.82-.61,1.82-1.53s-.75-1.5-1.86-1.51a4.3,4.3,0,0,0-1,.09Z"/><path class="b" d="M12.76,15.61H9.62v2.91h3.5v.88H8.57V11.31h4.37v.88H9.62v2.55h3.14Z"/><path class="b" d="M14.48,11.31h1v7.21H19v.88h-4.5Z"/><path class="b" d="M21.45,16.85l-.84,2.55H19.53l2.75-8.09h1.26l2.75,8.09H25.18l-.86-2.55ZM24.1,16l-.79-2.33c-.18-.53-.3-1-.42-1.47h0c-.12.48-.25,1-.4,1.46L21.66,16Z"/><path class="b" d="M28.53,11.31V19.4h-1V11.31Z"/></svg>