<svg xmlns="http://www.w3.org/2000/svg" viewBox="0 0 30.65 30.65"><defs><style>.a{fill:#f39200;stroke:#1d1d1b;stroke-miterlimit:10;}.b{fill:#fff;}</style></defs><title>warn-automaton</title><rect class="a" x="0.5" y="0.5" width="29.65" height="29.65" rx="5.67"/><path class="b" d="M3.28,17.39l-.84,2.54H1.36L4.1,11.84H5.36l2.76,8.09H7l-.87-2.54Zm2.65-.82-.79-2.33c-.18-.52-.3-1-.42-1.47h0c-.12.48-.25,1-.41,1.46l-.79,2.34Z"/><path class="b" d="M10,11.84v4.79c0,1.81.8,2.58,1.88,2.58s2-.79,2-2.58V11.84h1.06v4.72c0,2.48-1.31,3.5-3.06,3.5S9,19.11,9,16.61V11.84Z"/><path class="b" d="M18.28,12.73H15.82v-.89h6v.89H19.33v7.2h-1Z"/><path class="b" d="M29.29,15.8c0,2.79-1.69,4.26-3.75,4.26S21.9,18.41,21.9,16s1.6-4.25,3.76-4.25S29.29,13.4,29.29,15.8ZM23,15.93c0,1.73.93,3.28,2.58,3.28s2.59-1.52,2.59-3.36c0-1.61-.84-3.29-2.58-3.29S23,14.16,23,15.93Z"/></svg>